# xmcd
#
# Track frame offsets:
#	150
#	23890
#	50525
#	74230
#	92265
#	108565
#	134860
#	151200
#	174290
#	196090
#
# Disc length: 2693 seconds
#
# Revision: 1
# Processed by: cddbd v1.4PL0 Copyright (c) Steve Scherf et al.
# Submitted via: audiograbber 1.80.04
#
DISCID=870a830a
DTITLE=Kevin "B.F." Burt and the Instigators - Worth the Weight
DYEAR=1996
DGENRE=
TTITLE0=Save a Drowning Man
TTITLE1=Tell it to Another Fool
TTITLE2=Living in the Past
TTITLE3=No Blues
TTITLE4=Day Day
TTITLE5=Never
TTITLE6=Doin' the Same
TTITLE7=Same Old Thing
TTITLE8=Got to Make a Change
TTITLE9=Electric Kool Aid
EXTD=
EXTT0=
EXTT1=
EXTT2=
EXTT3=
EXTT4=
EXTT5=
EXTT6=
EXTT7=
EXTT8=
EXTT9=
PLAYORDER=
